<?xml version="1.0" standalone="no"?>
<!DOCTYPE svg PUBLIC "-//W3C//DTD SVG 20010904//EN"
 "http://www.w3.org/TR/2001/REC-SVG-20010904/DTD/svg10.dtd">
<svg version="1.0" xmlns="http://www.w3.org/2000/svg"
 width="1080.000000pt" height="1080.000000pt" viewBox="0 0 1080.000000 1080.000000"
 preserveAspectRatio="xMidYMid meet">
<metadata>
Created by potrace 1.16, written by Peter Selinger 2001-2019
</metadata>
<g transform="translate(0.000000,1080.000000) scale(0.100000,-0.100000)"
fill="#000000" stroke="none">
<path d="M5005 9814 c-664 -67 -1316 -277 -1845 -594 -797 -477 -1423 -1179
-1796 -2012 -106 -238 -216 -564 -263 -778 -7 -30 -16 -73 -21 -95 -36 -151
-66 -363 -91 -635 -11 -117 -7 -540 6 -680 21 -231 80 -591 116 -710 11 -36
25 -83 30 -105 13 -47 97 -311 109 -340 4 -11 25 -63 46 -115 83 -208 183
-409 304 -610 130 -217 328 -493 438 -610 18 -19 42 -50 55 -67 27 -40 271
-281 387 -384 103 -92 287 -235 412 -322 90 -62 129 -88 248 -158 30 -18 69
-41 85 -51 85 -51 454 -228 476 -228 5 0 17 -4 27 -9 20 -12 161 -65 229 -87
27 -8 57 -19 68 -23 11 -5 38 -14 60 -20 22 -6 78 -22 125 -36 47 -14 117 -32
155 -41 39 -8 88 -20 110 -25 22 -5 67 -14 100 -20 33 -6 83 -15 110 -20 209
-37 293 -43 700 -43 282 -1 440 3 505 12 168 23 234 33 275 42 22 5 69 14 105
21 192 35 491 123 740 217 701 265 1363 752 1846 1357 270 338 501 729 648
1100 16 39 32 79 37 90 14 32 75 214 99 295 12 41 26 86 30 100 4 14 13 45 19
70 5 25 18 77 27 115 91 385 127 838 99 1265 -16 239 -26 341 -43 440 -6 30
-15 84 -22 120 -52 296 -182 708 -310 985 -220 475 -504 896 -830 1230 -282
289 -447 428 -730 619 -284 191 -447 279 -755 411 -137 58 -516 185 -630 211
-38 8 -88 20 -110 25 -22 5 -65 14 -95 20 -30 6 -75 15 -100 20 -62 13 -303
45 -435 58 -145 15 -587 12 -750 -5z m830 -189 c72 -8 157 -18 190 -21 33 -3
96 -14 140 -23 44 -10 107 -24 140 -31 55 -12 179 -44 330 -84 33 -9 83 -25
110 -35 28 -11 106 -41 175 -67 69 -26 153 -60 188 -76 34 -15 65 -28 67 -28
12 0 198 -97 378 -196 90 -50 331 -215 462 -318 242 -188 472 -415 710 -699
91 -109 298 -414 377 -557 95 -173 194 -378 245 -510 14 -36 29 -74 34 -85 10
-23 90 -269 109 -335 7 -25 16 -56 20 -70 7 -23 12 -43 41 -165 38 -164 67
-364 90 -615 19 -212 4 -664 -30 -915 -16 -113 -47 -277 -67 -355 -8 -30 -19
-73 -24 -95 -19 -85 -63 -234 -103 -350 -155 -446 -398 -883 -702 -1261 -93
-116 -282 -318 -409 -435 -259 -242 -484 -407 -800 -588 -196 -113 -239 -134
-436 -218 -156 -67 -354 -138 -470 -170 -105 -28 -325 -81 -390 -92 -36 -7
-83 -16 -105 -21 -308 -67 -1055 -67 -1385 0 -25 5 -72 14 -105 20 -120 22
-392 91 -512 129 -59 19 -292 107 -358 136 -16 7 -64 27 -105 45 -41 18 -127
61 -191 95 -509 274 -862 554 -1260 999 -121 134 -351 456 -459 641 -61 105
-202 395 -255 525 -70 171 -165 463 -194 600 -7 30 -16 71 -21 90 -37 143 -76
425 -87 645 -42 776 91 1458 417 2130 134 277 313 558 515 810 155 194 439
476 645 640 418 332 724 499 1305 715 75 28 277 85 390 109 55 12 129 29 165
37 66 16 116 23 395 54 198 23 625 20 830 -5z"/>
<path d="M5080 9504 c-150 -8 -471 -60 -655 -106 -88 -22 -171 -41 -185 -43
-47 -4 -111 -26 -233 -79 -67 -29 -158 -66 -202 -81 -116 -39 -231 -91 -300
-134 -33 -21 -94 -58 -135 -82 -349 -204 -644 -432 -916 -711 -61 -62 -124
-129 -140 -149 -16 -20 -62 -74 -101 -122 -163 -192 -350 -481 -481 -743 -83
-165 -91 -181 -176 -391 -107 -262 -125 -319 -152 -467 -14 -78 -30 -163 -35
-191 -61 -312 -82 -635 -69 -1015 10 -248 24 -367 82 -650 24 -118 83 -334
133 -485 113 -342 364 -815 588 -1109 346 -455 736 -801 1245 -1105 211 -126
648 -315 857 -372 375 -101 461 -117 841 -159 116 -13 610 -13 706 0 40 5 133
17 207 25 352 42 712 143 1071 300 254 111 309 140 660 349 25 14 79 54 121
89 41 34 127 102 190 152 257 202 589 560 784 845 335 489 573 1071 665 1629
51 309 60 410 60 706 0 477 -59 846 -212 1315 -35 109 -58 170 -136 355 -26
63 -154 311 -209 406 -86 147 -231 361 -308 455 -22 27 -73 89 -114 139 -151
184 -430 445 -659 618 -534 405 -1251 704 -1862 777 -52 7 -115 16 -140 22
-43 10 -656 19 -790 12z m710 -104 c52 -5 122 -14 155 -19 33 -5 96 -15 140
-21 207 -30 465 -93 610 -150 11 -4 67 -25 125 -45 367 -132 827 -395 1132
-646 439 -361 828 -849 1065 -1335 101 -208 204 -469 248 -629 42 -157 93
-367 104 -430 7 -38 16 -92 21 -120 28 -158 35 -280 35 -615 0 -336 -7 -462
-35 -600 -4 -25 -14 -74 -20 -110 -43 -243 -125 -528 -222 -775 -38 -95 -177
-386 -215 -450 -10 -16 -42 -69 -70 -117 -172 -289 -394 -570 -649 -820 -120
-118 -307 -282 -364 -321 -14 -9 -45 -31 -70 -48 -268 -191 -568 -360 -805
-453 -66 -26 -136 -54 -155 -63 -90 -40 -362 -122 -535 -161 -49 -11 -270 -50
-330 -57 -234 -30 -757 -36 -980 -10 -500 57 -948 188 -1345 393 -176 91 -196
101 -229 113 -19 7 -54 30 -78 51 -24 21 -48 38 -53 38 -5 0 -24 13 -43 29
-18 17 -67 45 -108 64 -47 22 -94 55 -129 89 -30 29 -77 71 -105 93 -335 266
-682 666 -920 1060 -52 86 -202 375 -228 440 -9 22 -30 74 -47 115 -79 190
-131 359 -200 645 -57 233 -89 538 -90 836 0 318 27 603 80 844 5 22 14 65 21
95 58 269 187 624 329 905 147 290 298 517 511 771 105 126 407 425 488 484
33 25 86 68 117 97 101 95 439 308 689 436 170 87 444 197 590 237 17 5 69 20
118 34 48 15 111 31 140 37 28 6 70 15 92 20 54 12 213 36 425 64 116 15 656
19 790 5z"/>
<path d="M4760 9171 c0 -3 -12 -7 -27 -8 -16 -1 -44 -4 -63 -8 -19 -4 -46 -8
-60 -10 -43 -4 -80 -17 -80 -26 0 -5 4 -9 9 -9 4 0 7 -13 5 -28 -3 -27 -1 -28
36 -27 21 1 38 -1 37 -4 0 -3 2 -16 7 -28 4 -12 2 -64 -3 -115 -36 -315 -33
-301 -83 -313 -18 -4 -28 -9 -21 -12 7 -2 9 -11 6 -19 -11 -28 5 -61 29 -60
13 1 28 5 35 9 6 4 19 4 29 0 12 -5 15 -3 9 6 -6 10 2 12 34 7 22 -3 41 -2 41
3 0 5 15 8 34 6 21 -1 33 2 30 9 -2 6 -5 27 -7 46 -2 26 -7 35 -20 34 -9 -1
-17 2 -17 8 0 5 -4 7 -9 4 -8 -6 -4 114 4 122 2 3 24 6 47 8 24 1 55 5 71 7
24 4 29 -1 48 -42 22 -50 22 -86 -1 -86 -9 0 -15 -10 -16 -27 -1 -16 3 -28 7
-28 5 0 6 -6 3 -14 -4 -10 5 -13 40 -12 25 0 46 4 46 7 0 6 9 7 92 10 21 1 36
5 33 9 -2 4 8 6 24 4 26 -3 28 -1 27 34 -2 48 -11 62 -41 56 -13 -2 -27 1 -31
7 -5 8 -3 9 7 4 8 -5 6 1 -5 13 -10 12 -23 19 -27 16 -5 -3 -6 3 -2 12 4 10 2
15 -4 11 -5 -3 -10 -1 -10 6 -2 26 -60 147 -68 139 -4 -4 -5 -2 -2 5 7 12 -59
152 -77 165 -6 4 -8 8 -4 8 4 0 -4 23 -17 52 -22 48 -27 52 -60 53 -19 1 -35
-1 -35 -4z m30 -271 c15 -45 6 -64 -26 -58 -21 3 -30 52 -19 95 8 33 27 17 45
-37z"/>
<path d="M6146 9090 c-3 -23 -11 -38 -16 -35 -6 3 -10 4 -10 0 0 -3 11 -10 25
-15 18 -7 25 -17 25 -35 0 -14 -5 -25 -10 -25 -6 0 -10 -6 -8 -12 3 -20 -12
-88 -20 -88 -4 0 -8 -12 -9 -26 0 -15 -5 -29 -10 -33 -4 -3 -8 -14 -9 -23 -2
-50 -5 -59 -15 -52 -8 4 -9 -1 -4 -16 4 -12 3 -20 -1 -17 -5 3 -10 -8 -10 -25
-1 -17 -7 -34 -15 -39 -8 -5 -9 -9 -4 -9 6 0 -1 -7 -14 -14 -14 -8 -32 -11
-40 -8 -9 3 -12 1 -7 -6 8 -14 -3 -64 -13 -57 -4 2 -8 -2 -8 -10 0 -14 49 -31
76 -26 7 1 10 -2 7 -7 -3 -5 0 -10 7 -9 31 1 48 -4 42 -12 -3 -6 3 -8 15 -6
11 2 22 0 25 -5 9 -14 40 -4 39 14 -1 8 2 13 7 10 5 -3 8 8 7 25 -1 16 -5 28
-9 25 -9 -5 -19 9 -24 36 -2 11 1 20 7 20 6 0 8 9 5 20 -3 11 -1 22 4 25 4 3
5 13 2 22 -5 12 -3 14 7 8 10 -6 12 -3 8 13 -4 14 -2 20 4 16 6 -4 8 2 3 16
-5 17 -4 20 5 15 10 -6 11 -1 6 19 -4 18 -3 25 3 21 7 -3 8 0 5 9 -10 27 45
20 56 -6 18 -44 85 -263 83 -275 0 -7 4 -13 9 -13 6 0 8 -6 5 -14 -3 -7 -1
-18 4 -23 5 -5 11 -23 12 -40 1 -22 6 -29 16 -25 10 4 12 1 6 -8 -6 -10 -3
-12 13 -8 12 4 24 2 27 -3 3 -4 13 -5 22 -2 11 4 14 3 9 -5 -4 -8 -2 -10 7 -6
8 3 18 1 22 -5 12 -20 20 -11 22 21 2 18 7 34 12 36 6 2 7 10 4 19 -4 11 -2
14 5 9 7 -4 10 1 7 14 -2 11 0 20 5 20 4 0 6 9 3 20 -3 11 0 20 6 20 5 0 8 7
5 15 -4 8 -1 15 6 15 7 0 10 7 6 16 -4 9 -2 13 5 8 8 -4 9 1 4 16 -4 14 -3 20
2 17 6 -4 8 4 5 18 -2 14 0 25 7 25 5 0 8 7 5 15 -4 8 -1 15 5 15 6 0 8 7 5
15 -4 8 -1 15 6 15 6 0 9 4 5 10 -8 13 5 61 16 55 4 -3 6 4 4 15 -2 11 0 20 6
20 5 0 8 3 8 8 -4 26 3 32 31 27 22 -4 28 -2 24 8 -3 8 -1 24 4 38 13 32 11
45 -6 41 -8 -2 -11 1 -7 7 3 7 0 8 -9 5 -8 -3 -27 3 -42 13 -16 10 -31 17 -34
17 -5 -1 -22 3 -50 13 -27 11 -40 11 -35 3 3 -5 1 -11 -4 -15 -6 -3 -7 -13 -4
-22 4 -9 2 -14 -3 -11 -5 4 -9 -4 -9 -17 0 -13 4 -21 9 -18 11 8 26 -17 26
-45 0 -14 -4 -21 -11 -16 -8 4 -9 0 -4 -15 4 -12 2 -21 -4 -21 -6 0 -8 -7 -5
-15 4 -8 1 -15 -6 -15 -7 0 -9 -8 -5 -21 5 -16 4 -19 -5 -14 -9 5 -10 2 -6
-12 4 -11 2 -33 -4 -47 -8 -22 -15 -27 -38 -24 -23 3 -27 7 -25 31 1 15 -2 25
-7 22 -6 -3 -7 1 -4 9 3 9 1 16 -5 16 -6 0 -8 7 -5 15 4 8 1 15 -7 15 -7 0 -9
3 -6 7 4 3 2 12 -4 19 -6 8 -9 21 -5 29 4 10 2 14 -5 9 -8 -4 -9 1 -4 16 5 15
4 20 -4 16 -7 -5 -9 -1 -5 8 3 9 1 16 -5 16 -6 0 -8 6 -6 13 3 7 -3 29 -14 50
-11 21 -17 46 -14 54 4 10 2 14 -4 10 -7 -5 -9 0 -6 11 5 21 -23 55 -38 46 -6
-3 -19 2 -29 11 -11 10 -26 15 -35 11 -11 -4 -14 -2 -9 6 5 8 2 9 -9 5 -9 -3
-19 -2 -23 4 -3 6 -12 8 -19 5 -7 -2 -17 0 -22 5 -7 7 -13 -4 -17 -31z"/>
<path d="M3411 8702 c-1 -7 -6 -10 -13 -6 -6 4 -8 3 -5 -3 9 -14 -29 -47 -44
-37 -8 5 -10 3 -4 -6 6 -10 4 -12 -9 -7 -9 4 -15 3 -12 -2 8 -12 -24 -37 -57
-45 -15 -4 -25 -11 -22 -16 3 -6 -1 -10 -9 -10 -9 0 -16 -4 -16 -9 0 -5 -11
-12 -25 -15 -14 -4 -23 -11 -20 -16 3 -6 -3 -10 -13 -10 -11 0 -26 -8 -33 -17
-13 -17 -13 -17 6 -3 19 14 19 14 6 -3 -8 -10 -20 -16 -27 -13 -7 3 -15 -2
-18 -10 -3 -9 -11 -12 -18 -8 -7 4 -10 4 -6 -1 10 -11 -20 -38 -33 -29 -7 4
-9 3 -6 -3 4 -5 -5 -16 -19 -24 -28 -14 -52 -49 -35 -49 6 0 16 -10 23 -23 9
-17 21 -23 43 -23 20 1 29 -3 27 -12 -1 -8 2 -11 7 -8 5 3 14 -1 21 -9 7 -8 9
-15 4 -15 -5 0 -1 -5 9 -11 9 -6 15 -14 12 -20 -4 -5 -1 -9 5 -9 6 0 8 -5 5
-10 -4 -6 -1 -9 7 -8 7 2 12 -3 10 -9 -1 -7 2 -13 8 -13 5 0 10 -7 10 -15 0
-8 12 -26 27 -41 15 -15 28 -33 29 -39 1 -6 15 -26 31 -43 31 -34 43 -95 22
-108 -8 -5 -9 -3 -4 6 5 8 4 11 -3 6 -14 -8 -4 -36 11 -33 7 1 11 -4 9 -10 -1
-7 2 -13 8 -13 5 0 10 -6 10 -14 0 -8 4 -18 10 -21 5 -3 7 0 4 9 -4 10 2 17
20 22 14 3 26 10 26 16 0 5 5 6 10 3 6 -3 10 1 10 10 0 9 5 13 10 10 6 -3 13
1 16 9 3 9 14 16 23 16 23 0 63 29 55 41 -3 5 -2 9 3 8 20 -3 34 2 28 11 -3 6
1 7 10 4 11 -5 18 0 22 15 3 12 13 21 24 21 10 0 36 18 59 41 22 22 46 39 52
37 7 -3 17 5 23 16 6 12 21 22 33 24 25 4 29 20 7 28 -8 4 -15 13 -15 21 0 8
-4 11 -10 8 -6 -3 -7 1 -4 9 3 9 2 16 -3 16 -6 0 -18 16 -29 35 -19 36 -41 44
-62 23 -7 -7 -12 -9 -12 -5 0 4 -9 3 -21 -3 -20 -11 -20 -12 -2 -28 18 -17 26
-72 10 -72 -4 0 -6 -4 -3 -9 3 -4 -4 -17 -16 -27 -12 -11 -18 -13 -14 -7 5 9
2 11 -8 7 -9 -3 -14 -10 -11 -14 8 -13 -47 -51 -64 -45 -8 3 -12 3 -8 -1 4 -4
0 -16 -10 -26 -18 -21 -74 -25 -71 -5 2 6 -3 11 -10 9 -6 -1 -11 4 -10 10 2 7
-3 12 -10 10 -8 -1 -11 2 -7 8 7 11 -19 53 -27 45 -3 -3 -4 6 -2 21 1 15 13
36 25 48 16 15 19 16 9 3 -11 -15 -6 -14 22 5 20 13 34 26 31 31 -2 4 3 7 11
7 9 0 16 5 16 10 0 6 4 9 9 8 5 -2 8 2 8 7 -1 6 -5 9 -8 8 -4 -1 -6 5 -5 15 0
9 -4 16 -10 15 -7 -1 -11 5 -10 14 0 9 -6 18 -14 20 -13 4 -13 3 0 -6 13 -9
12 -11 -5 -12 -11 -1 -23 -1 -27 0 -5 0 -8 -4 -8 -10 0 -5 -4 -8 -8 -5 -5 3
-16 -6 -26 -19 -10 -14 -22 -22 -27 -19 -5 3 -9 2 -9 -3 0 -4 -14 -9 -31 -10
-23 -2 -32 2 -36 17 -3 11 -10 17 -16 13 -6 -3 -7 -1 -3 6 9 13 -12 44 -24 36
-4 -3 -11 10 -14 28 -6 27 -2 35 21 54 15 13 32 23 37 23 5 0 15 8 23 18 8 10
11 11 7 2 -7 -13 -6 -13 12 0 10 8 24 21 30 29 17 22 112 27 120 7 3 -9 13
-16 21 -16 8 0 11 -5 7 -12 -4 -7 -3 -8 5 -4 6 4 9 12 6 17 -4 5 1 9 9 9 9 0
16 4 16 10 0 5 7 7 15 4 11 -5 14 -2 9 12 -11 29 -25 44 -35 38 -5 -3 -9 -2
-8 3 1 4 -2 17 -6 28 -11 27 -45 70 -46 59 -1 -5 -5 2 -9 16 -4 14 -8 19 -9
12z"/>
<path d="M3629 8333 c-13 -17 -13 -17 6 -3 11 8 22 16 24 17 2 2 0 3 -6 3 -6
0 -17 -8 -24 -17z"/>
<path d="M7667 8277 c4 -6 0 -8 -11 -4 -11 4 -15 3 -11 -4 4 -6 -1 -9 -11 -7
-12 2 -18 -2 -16 -10 1 -8 -7 -16 -18 -19 -24 -6 -64 -68 -56 -88 3 -8 1 -15
-4 -15 -11 0 -1 -64 12 -68 4 -2 6 -7 3 -12 -7 -12 64 -148 83 -160 10 -5 13
-10 7 -10 -5 0 -3 -5 5 -10 10 -6 15 -27 15 -67 0 -49 -3 -58 -17 -57 -10 1
-15 -2 -13 -7 10 -15 -70 4 -82 20 -7 9 -13 12 -13 6 0 -5 -6 1 -13 15 -7 14
-19 25 -27 25 -8 0 -15 7 -16 15 -2 35 -4 41 -13 36 -5 -4 -8 20 -7 54 2 32
-1 57 -6 54 -4 -3 -8 2 -8 11 0 9 -4 14 -8 11 -5 -3 -15 6 -22 19 -16 30 -21
31 -38 4 -11 -17 -11 -20 0 -14 7 4 -7 -13 -32 -38 -25 -24 -44 -49 -42 -56 2
-6 8 -9 13 -5 5 3 9 -4 9 -16 0 -12 4 -18 10 -15 5 3 7 0 5 -8 -7 -16 33 -69
46 -62 5 4 6 0 3 -8 -3 -8 0 -18 7 -23 8 -5 10 -3 4 6 -5 9 -4 11 3 6 7 -4 12
-13 12 -20 0 -16 69 -78 80 -71 4 3 10 -5 13 -16 4 -13 10 -18 18 -14 7 5 20
-2 31 -16 11 -13 16 -18 12 -10 -8 16 9 8 38 -17 20 -17 79 -9 98 13 6 7 17
12 25 9 7 -3 16 0 21 7 5 8 3 10 -7 5 -8 -4 0 5 16 19 17 15 23 24 15 19 -13
-7 -13 -6 0 12 8 10 19 22 23 25 17 12 8 84 -17 142 -9 20 -19 37 -22 37 -3 0
-2 -6 2 -12 4 -8 3 -10 -2 -5 -9 9 -10 13 -13 43 0 8 -5 12 -11 9 -6 -4 -7 1
-3 11 5 13 3 15 -7 9 -9 -5 -11 -4 -6 3 8 13 -22 64 -33 57 -4 -2 -8 1 -9 8 0
7 -3 29 -5 49 -6 48 16 75 62 75 26 -1 43 -10 77 -44 45 -46 55 -66 59 -117 3
-43 14 -76 26 -76 6 0 7 -4 4 -10 -3 -5 3 -10 15 -10 14 0 19 -4 14 -12 -4 -8
-3 -10 2 -5 5 5 10 13 10 18 1 5 2 14 3 20 0 5 5 8 10 5 8 -6 31 14 28 24 -1
3 6 16 16 30 9 13 17 20 17 14 0 -5 -4 -15 -10 -22 -5 -7 -3 -6 6 2 14 12 14
17 -5 54 -11 22 -26 44 -33 48 -8 5 -7 0 2 -12 14 -18 14 -18 -2 -5 -10 7 -16
17 -13 21 8 12 -35 61 -47 54 -7 -4 -8 -2 -4 5 4 6 0 18 -8 27 -9 8 -16 12
-17 7 0 -4 -4 0 -8 10 -4 10 -10 17 -13 15 -3 -2 -16 9 -27 24 -12 14 -40 35
-64 46 -48 23 -120 36 -110 19z m174 -184 c13 -16 12 -17 -3 -4 -10 7 -18 15
-18 17 0 8 8 3 21 -13z"/>
<path d="M5150 8239 c-243 -27 -415 -64 -625 -134 -182 -60 -251 -89 -400
-165 -226 -116 -363 -208 -566 -380 -512 -435 -872 -1083 -959 -1730 -6 -47
-15 -113 -20 -146 -13 -79 -13 -479 0 -558 5 -33 14 -99 21 -146 39 -286 138
-597 276 -865 107 -207 222 -382 353 -535 224 -262 479 -476 761 -638 137 -79
289 -153 381 -187 160 -58 236 -83 293 -95 33 -7 71 -16 85 -20 46 -14 123
-29 265 -51 236 -37 605 -32 860 12 365 64 703 189 1012 376 137 82 204 131
353 256 258 216 459 456 642 767 45 78 178 360 178 379 0 6 4 19 10 29 26 48
101 295 121 402 4 25 13 72 19 105 47 249 51 671 9 935 -172 1062 -930 1942
-1949 2262 -200 63 -342 95 -570 128 -71 11 -453 10 -550 -1z m692 -164 c281
-42 504 -116 798 -264 630 -317 1124 -894 1345 -1571 39 -116 40 -123 75 -272
36 -158 60 -384 60 -578 0 -614 -201 -1188 -590 -1684 -41 -52 -80 -96 -86
-96 -12 0 -54 -54 -70 -90 -6 -14 -28 -39 -48 -55 -20 -17 -71 -59 -114 -95
-149 -126 -178 -149 -287 -222 -519 -351 -1150 -508 -1780 -443 -373 38 -655
121 -973 285 -222 116 -410 247 -586 410 -47 44 -99 88 -115 98 -30 18 -103
99 -122 135 -7 12 -51 73 -99 137 -183 243 -342 549 -420 810 -12 41 -26 86
-30 100 -18 56 -53 225 -71 345 -7 49 -12 198 -13 380 0 331 11 434 75 673 98
371 229 638 478 976 100 136 366 399 511 507 368 274 728 429 1177 510 217 38
646 41 885 4z"/>
<path d="M5353 7355 c-9 -10 -13 -57 -13 -158 0 -142 0 -145 23 -151 42 -11
77 -6 97 14 18 18 20 33 20 165 l0 145 -57 0 c-37 -1 -63 -6 -70 -15z"/>
<path d="M4390 7147 c-22 -11 -70 -70 -70 -86 0 -4 56 -62 125 -131 l125 -124
45 44 c25 24 45 51 45 59 0 14 -227 251 -240 251 -3 0 -16 -6 -30 -13z"/>
<path d="M6400 7153 c-26 -9 -210 -197 -229 -234 l-19 -37 38 -37 c31 -30 41
-35 56 -27 31 16 254 249 254 264 0 16 -61 78 -75 77 -6 0 -17 -3 -25 -6z"/>
<path d="M5295 6934 c-11 -2 -45 -9 -75 -15 -125 -24 -271 -87 -365 -158 -162
-123 -299 -328 -350 -526 -16 -63 -36 -242 -31 -275 2 -14 7 -52 11 -85 6 -55
19 -113 43 -190 14 -46 70 -153 112 -215 75 -110 220 -237 343 -300 45 -24 49
-29 84 -120 19 -52 43 -101 51 -107 12 -10 85 -13 287 -13 246 0 273 2 287 18
13 14 62 124 82 185 3 9 16 21 28 26 31 12 196 124 233 159 93 86 175 205 230
331 58 132 70 198 70 376 0 151 -6 191 -46 303 -132 368 -487 616 -879 611
-52 -1 -104 -3 -115 -5z m-134 -1081 c77 -76 149 -152 160 -169 18 -29 19 -52
19 -321 0 -211 -3 -292 -12 -301 -18 -18 -85 -15 -92 4 -3 9 -6 142 -6 297 l0
282 -142 142 -142 142 29 31 c16 16 32 30 37 30 4 0 71 -62 149 -137z m674 97
c16 -16 27 -32 24 -34 -2 -3 -56 -58 -120 -123 -171 -174 -159 -141 -159 -451
0 -143 -3 -267 -6 -276 -8 -20 -84 -23 -84 -3 0 6 0 151 0 322 l1 310 142 142
c78 79 149 143 158 143 8 0 28 -13 44 -30z"/>
<path d="M3936 6117 c-13 -10 -17 -24 -14 -62 l3 -50 175 -3 c171 -2 175 -2
192 20 10 14 18 41 18 66 l0 42 -178 0 c-129 0 -183 -4 -196 -13z"/>
<path d="M6531 6116 c-7 -8 -11 -36 -9 -63 l3 -48 170 -3 c163 -3 171 -2 188
19 10 13 17 38 17 65 l0 44 -179 0 c-142 0 -181 -3 -190 -14z"/>
<path d="M4565 5318 c-36 -19 -216 -202 -232 -236 l-16 -34 41 -41 41 -41 131
130 c83 83 130 138 130 151 0 16 -61 84 -73 83 -1 0 -11 -6 -22 -12z"/>
<path d="M6224 5310 c-24 -9 -64 -61 -64 -81 0 -16 230 -249 244 -249 14 0 96
81 96 94 0 14 -232 246 -245 245 -5 0 -20 -4 -31 -9z"/>
<path d="M5113 4892 c-12 -4 -34 -22 -48 -41 -49 -67 -42 -136 17 -186 l30
-25 286 0 c329 0 331 1 372 85 20 41 21 51 11 86 -7 23 -25 49 -45 64 l-33 25
-284 -1 c-156 -1 -294 -4 -306 -7z"/>
<path d="M5152 4574 c-12 -8 -28 -27 -36 -42 -18 -36 -28 -92 -16 -92 5 0 17
-13 26 -29 35 -59 55 -63 306 -59 l227 3 30 29 c28 26 31 36 31 87 0 49 -4 61
-29 88 l-29 31 -244 0 c-204 0 -247 -3 -266 -16z"/>
<path d="M5045 4210 c-17 -19 -18 -23 -3 -48 16 -28 14 -97 -3 -108 -5 -3 -9
-12 -9 -20 0 -10 14 -14 55 -14 48 0 55 3 55 19 0 11 -5 21 -10 23 -6 2 -12
30 -14 63 -2 33 -4 70 -5 83 -1 29 -41 30 -66 2z"/>
<path d="M5211 4204 c-12 -15 -21 -37 -21 -50 0 -27 43 -64 76 -64 15 0 24 -6
24 -16 0 -13 -7 -15 -41 -9 -39 7 -40 6 -37 -16 3 -21 9 -24 54 -27 46 -3 54
0 73 24 29 37 29 121 0 158 -16 21 -29 26 -64 26 -35 0 -48 -5 -64 -26z m83
-31 c4 -9 3 -20 -2 -25 -11 -11 -42 1 -42 16 0 29 34 36 44 9z"/>
<path d="M5437 4212 c-10 -10 -17 -35 -17 -55 0 -41 27 -67 72 -67 16 0 28 -5
28 -10 0 -18 -31 -24 -53 -11 -23 15 -41 2 -35 -25 2 -15 14 -20 50 -22 62 -4
85 10 98 59 14 49 5 96 -23 127 -26 28 -96 31 -120 4z m83 -37 c13 -16 6 -35
-15 -35 -18 0 -28 17 -21 35 7 19 20 19 36 0z"/>
<path d="M5661 4201 c-29 -40 -29 -119 0 -155 17 -21 29 -26 65 -26 39 0 47 4
64 33 24 38 26 97 5 136 -16 33 -33 41 -80 41 -26 0 -39 -7 -54 -29z m83 -27
c9 -23 7 -87 -3 -103 -5 -8 -16 -11 -25 -8 -12 5 -16 20 -16 60 0 30 3 57 7
60 11 12 31 7 37 -9z"/>
<path d="M7329 7953 l-24 -28 28 24 c15 14 27 26 27 28 0 8 -8 1 -31 -24z"/>
<path d="M2232 7490 c-18 -11 -38 -18 -43 -14 -5 3 -9 2 -8 -3 3 -14 -13 -43
-21 -38 -4 2 -18 -8 -31 -23 l-24 -27 24 20 24 20 -23 -32 c-23 -31 -39 -46
-24 -21 5 7 3 8 -5 4 -7 -5 -10 -14 -7 -22 3 -8 -1 -17 -9 -20 -8 -3 -11 -12
-8 -21 5 -12 3 -14 -7 -8 -10 6 -12 4 -7 -8 3 -10 2 -17 -4 -17 -6 0 -7 -4 -4
-10 3 -5 1 -10 -5 -10 -7 0 -9 -7 -6 -16 4 -9 2 -13 -5 -8 -8 4 -9 -1 -4 -15
3 -12 2 -21 -4 -21 -17 0 -7 -122 13 -152 10 -15 17 -29 17 -32 -3 -17 0 -26
7 -24 4 2 8 -1 10 -7 2 -5 10 -14 18 -18 8 -5 13 -11 10 -15 -2 -4 8 -16 23
-27 24 -18 25 -18 11 0 -15 18 -14 18 13 1 24 -17 41 -36 17 -21 -5 3 -10 4
-10 1 0 -3 10 -10 21 -17 17 -9 20 -8 14 3 -4 7 2 2 13 -12 12 -14 24 -21 28
-18 4 4 13 0 21 -10 9 -10 11 -11 7 -2 -7 12 -5 13 8 3 8 -7 18 -10 21 -6 4 3
7 2 7 -4 0 -6 9 -9 22 -5 12 3 19 1 15 -4 -9 -15 90 -9 107 5 8 7 20 10 26 6
5 -3 10 -1 10 4 0 6 6 10 13 9 6 -2 11 2 10 8 -1 7 11 14 26 17 20 4 28 12 27
24 0 10 5 17 12 15 6 -1 11 1 10 5 -4 12 35 73 42 68 10 -6 52 73 45 85 -3 5
-1 10 5 10 7 0 10 7 6 15 -3 8 -1 15 5 15 6 0 8 7 5 16 -3 8 -2 12 4 9 5 -3 7
15 4 46 -3 34 -2 49 5 44 7 -3 8 0 5 10 -4 8 -15 20 -26 26 -16 8 -19 8 -13
-1 6 -9 2 -9 -14 -1 -11 7 -21 14 -21 17 0 3 5 2 10 -1 6 -3 10 -4 10 -1 0 3
-13 12 -30 21 -28 14 -31 14 -47 -4 -9 -11 -20 -18 -25 -15 -4 3 -5 -3 -1 -12
5 -13 3 -15 -8 -9 -8 5 -6 -1 4 -13 11 -12 16 -26 11 -33 -4 -8 -3 -10 4 -5
19 11 16 -109 -3 -127 -8 -8 -11 -17 -8 -21 4 -3 1 -6 -5 -6 -7 0 -11 -6 -10
-12 2 -7 -3 -12 -11 -10 -8 2 -11 -3 -8 -12 7 -17 -18 -41 -33 -31 -6 4 -9 1
-8 -7 2 -8 -7 -13 -24 -12 -16 1 -28 -2 -28 -5 0 -10 -41 -6 -70 6 -14 6 -31
8 -39 5 -9 -3 -12 -1 -7 6 4 7 2 10 -7 7 -7 -3 -25 5 -39 18 -13 13 -30 21
-36 19 -8 -2 -10 3 -5 14 5 13 3 16 -10 11 -15 -6 -51 30 -57 58 -1 6 -5 16
-8 23 -8 22 5 113 18 125 10 9 11 9 5 -2 -5 -10 -4 -12 4 -7 6 4 9 11 6 16 -7
12 16 60 29 60 6 0 16 8 23 18 8 14 22 18 61 17 39 -1 49 2 48 14 -1 9 5 15
12 14 11 -3 17 10 13 31 -1 5 4 13 11 19 10 7 9 8 -4 4 -9 -3 -24 1 -35 9 -10
9 -12 12 -4 8 9 -4 12 -3 7 4 -4 6 -13 9 -21 5 -8 -3 -15 0 -15 6 0 6 -3 10
-7 10 -20 -3 -34 2 -28 11 9 14 5 13 -33 -10z"/>
<path d="M8443 7171 c-90 -23 -187 -101 -230 -184 -91 -178 24 -476 210 -545
77 -29 186 -30 262 -1 143 53 210 205 171 388 -43 205 -167 339 -321 347 -33
2 -74 -1 -92 -5z m209 -171 c66 -19 128 -111 128 -190 -1 -45 -37 -108 -80
-139 -86 -62 -224 -94 -307 -72 -85 23 -139 119 -114 202 24 78 130 163 241
193 67 18 85 19 132 6z"/>
<path d="M1835 5931 c-3 -2 -13 -5 -23 -6 -9 -2 -30 -8 -47 -14 -16 -6 -34
-11 -39 -10 -5 0 -13 -6 -18 -15 -5 -9 -13 -14 -18 -11 -12 8 -72 -65 -66 -81
3 -8 1 -14 -5 -14 -6 0 -9 -7 -5 -15 3 -8 0 -15 -5 -15 -7 0 -9 -11 -7 -25 3
-14 1 -22 -4 -19 -6 4 -8 -10 -7 -33 2 -21 1 -43 -2 -48 -7 -12 -3 -69 6 -105
4 -14 7 -35 6 -48 -1 -15 3 -21 11 -16 7 4 8 3 4 -4 -8 -13 17 -67 36 -78 8
-5 7 0 -2 12 -14 18 -14 18 3 5 9 -7 17 -22 17 -33 0 -14 5 -18 15 -14 8 3 14
0 12 -7 -1 -7 6 -11 15 -11 10 1 16 -3 15 -10 -1 -6 8 -10 21 -10 12 1 22 -3
22 -8 0 -6 9 -8 20 -5 11 3 23 1 26 -5 3 -5 15 -8 25 -5 11 3 19 2 19 -1 0 -4
31 -7 69 -7 40 0 67 4 63 9 -3 5 2 7 11 3 9 -3 17 -3 19 1 6 14 80 42 91 36 7
-4 9 -4 5 0 -9 11 33 57 45 49 6 -3 7 -1 3 5 -6 10 8 46 24 62 3 3 6 19 8 35
1 17 5 37 9 45 9 26 9 199 -1 192 -5 -3 -7 2 -3 11 3 10 2 17 -4 17 -6 0 -9 6
-7 12 3 7 -1 19 -9 26 -7 8 -11 18 -8 23 4 5 2 9 -4 9 -6 0 -7 7 -4 17 4 10 2
14 -4 10 -6 -4 -22 6 -36 22 -14 17 -28 27 -31 24 -3 -4 -6 0 -6 7 0 7 -3 10
-7 7 -3 -4 -12 1 -20 11 -9 10 -11 11 -7 2 7 -12 5 -13 -8 -3 -8 7 -18 10 -21
6 -4 -3 -17 2 -29 13 -12 10 -18 13 -14 7 8 -14 -15 -18 -28 -5 -8 8 -114 11
-121 3z m-165 -85 c0 -2 -8 -10 -17 -17 -16 -13 -17 -12 -4 4 13 16 21 21 21
13z m353 -110 c50 -25 71 -66 69 -139 -2 -76 -24 -112 -79 -133 -64 -25 -177
-15 -237 20 -51 29 -60 50 -60 131 0 63 26 112 67 131 45 20 189 14 240 -10z"/>
<path d="M8985 5883 c-3 -16 -9 -41 -13 -58 l-8 -30 -214 3 c-118 2 -222 5
-232 8 -9 3 -23 23 -32 44 -12 29 -22 40 -37 40 -21 0 -22 -3 -15 -77 3 -43 9
-127 13 -186 6 -101 7 -108 26 -105 16 2 24 15 33 51 7 27 15 51 18 54 3 3 48
2 101 -2 l96 -7 -3 -86 -3 -85 -35 -12 c-29 -10 -36 -17 -38 -43 -4 -35 -12
-32 127 -57 107 -19 101 -20 101 19 0 28 -6 38 -40 60 l-40 26 0 86 0 87 63
-7 c34 -4 77 -9 95 -13 l32 -5 -1 -102 c0 -55 -4 -121 -7 -146 -7 -43 -9 -45
-54 -58 -46 -13 -48 -14 -48 -51 l0 -38 78 -21 c42 -11 78 -19 80 -17 11 11
19 409 12 565 -5 102 -9 186 -10 188 0 1 -9 2 -20 2 -13 0 -21 -9 -25 -27z"/>
<path d="M2027 4714 c-9 -27 -17 -59 -17 -72 0 -60 -28 -92 -110 -125 -14 -5
-33 -13 -42 -18 -10 -5 -24 -9 -32 -9 -35 0 -23 -21 26 -46 29 -14 72 -38 95
-53 l43 -26 1 -80 c1 -44 4 -91 8 -103 6 -23 7 -23 56 19 28 24 54 49 58 56 4
7 21 20 36 28 30 15 26 15 194 -21 29 -7 34 3 18 34 -36 67 -61 130 -61 155 0
17 18 57 45 98 25 38 45 74 45 80 0 7 -15 9 -42 5 -24 -3 -72 -9 -107 -12
l-63 -6 -67 72 -66 73 -18 -49z"/>
<path d="M8701 4690 l-62 -70 -73 0 c-40 0 -87 5 -104 11 -17 6 -36 9 -42 7
-6 -2 14 -43 45 -91 56 -91 61 -105 46 -135 -5 -9 -24 -49 -43 -88 l-34 -70
45 8 c25 4 66 12 91 18 82 17 91 14 165 -54 l70 -64 8 41 c4 23 11 71 15 106
l7 65 65 38 c36 22 75 43 88 48 26 11 21 30 -9 30 -10 0 -19 5 -19 10 0 6 -9
10 -20 10 -11 0 -28 4 -38 9 -9 5 -33 16 -53 25 -31 13 -38 22 -42 53 -16 105
-24 144 -33 153 -7 7 -32 -15 -73 -60z"/>
<path d="M8079 3747 c-40 -62 -97 -150 -128 -197 -52 -78 -81 -127 -81 -136 0
-12 51 -27 85 -25 35 1 57 -9 175 -86 145 -94 170 -115 170 -146 0 -20 26 -46
47 -47 6 0 22 17 34 38 13 20 27 42 31 47 17 22 101 152 120 187 12 21 25 38
30 38 4 0 8 5 8 11 0 6 16 33 35 60 l36 48 -60 41 c-81 54 -85 55 -105 26 -15
-24 -15 -27 4 -46 37 -37 25 -79 -53 -194 -36 -53 -42 -58 -68 -52 -16 3 -39
15 -51 26 -12 11 -28 20 -35 20 -26 0 -14 64 22 117 19 29 35 54 35 57 0 3
-13 14 -29 25 l-29 21 -43 -65 c-51 -74 -68 -79 -136 -40 -61 36 -59 63 13
166 l57 80 48 -2 c39 -2 52 1 64 17 8 10 15 22 15 25 0 3 -31 27 -69 52 l-69
46 -73 -112z"/>
<path d="M2627 3832 c-15 -9 -27 -24 -27 -33 0 -38 -18 -55 -158 -146 -125
-82 -150 -94 -182 -92 -23 2 -48 -4 -64 -14 l-26 -18 60 -89 c33 -50 63 -90
66 -90 2 0 16 7 29 16 17 11 25 26 25 45 0 24 10 35 54 65 37 24 61 34 74 30
22 -7 72 -77 72 -100 0 -8 -19 -38 -42 -67 -24 -29 -59 -74 -80 -100 l-36 -47
50 -74 c28 -40 52 -74 53 -76 1 -1 13 6 26 17 19 15 23 27 20 62 -2 41 3 51
67 134 75 99 78 100 208 112 47 4 64 2 75 -10 12 -13 17 -13 42 1 15 9 27 20
27 24 0 7 -104 164 -120 182 -5 4 -22 0 -39 -10 -22 -13 -31 -26 -31 -45 0
-31 -8 -36 -88 -45 l-60 -6 -26 38 c-38 57 -35 84 17 117 32 22 50 27 78 24
24 -3 43 1 59 13 l24 18 -60 90 -59 91 -28 -17z"/>
<path d="M7689 3205 c-61 -32 -174 -146 -206 -208 -51 -101 -23 -206 81 -310
132 -133 241 -143 376 -38 84 66 139 139 160 211 9 31 6 35 -84 128 l-93 96
-82 -79 c-44 -43 -81 -81 -81 -85 0 -4 10 -19 21 -34 l22 -27 31 30 c18 17 41
31 52 31 27 0 94 -70 94 -98 0 -29 -64 -99 -108 -118 -71 -29 -136 -10 -211
64 -63 62 -84 105 -85 168 -2 95 79 174 177 174 44 0 58 4 76 24 l23 24 -33
36 c-38 43 -65 45 -130 11z"/>
<path d="M3080 3188 c-7 -13 -13 -36 -11 -51 2 -23 -13 -46 -85 -125 -152
-167 -171 -185 -199 -180 -17 4 -31 -2 -47 -19 l-22 -23 45 -46 c24 -25 56
-55 72 -66 l27 -20 19 24 c13 15 18 32 14 49 -5 27 10 49 96 142 45 48 77 59
88 31 3 -8 -2 -68 -11 -132 -9 -64 -22 -151 -28 -192 l-10 -74 45 -43 c25 -24
50 -43 55 -43 7 0 111 111 272 293 34 38 49 47 74 47 21 0 40 8 55 24 l22 24
-51 48 c-83 77 -88 80 -114 55 -16 -15 -21 -29 -18 -54 3 -29 -4 -41 -63 -105
-63 -68 -95 -86 -110 -62 -6 10 14 206 36 338 7 49 7 65 -3 75 -86 79 -118
107 -125 107 -5 0 -15 -10 -23 -22z"/>
<path d="M7067 2695 c-41 -15 -377 -204 -377 -212 0 -3 8 -18 17 -33 11 -20
26 -30 46 -32 27 -3 38 -17 118 -158 87 -152 100 -185 78 -207 -8 -8 -6 -18 6
-37 24 -36 16 -37 138 33 17 10 77 44 132 75 117 67 129 77 167 135 22 36 28
56 28 103 0 32 -4 66 -9 76 -5 9 -21 43 -36 75 -54 112 -157 198 -237 196 -18
0 -50 -7 -71 -14z m93 -147 c48 -34 102 -128 108 -188 4 -48 3 -52 -35 -88
-21 -20 -60 -48 -86 -62 -53 -28 -58 -26 -95 40 -11 19 -36 64 -57 100 -69
119 -75 131 -75 135 0 2 33 22 73 45 82 46 120 50 167 18z"/>
<path d="M3728 2624 c-64 -19 -136 -94 -182 -188 -30 -61 -37 -85 -37 -137 0
-85 26 -133 112 -204 34 -29 145 -80 203 -94 110 -27 209 35 282 175 64 123
66 202 8 286 -47 68 -185 149 -286 168 -28 6 -51 10 -52 9 0 0 -22 -7 -48 -15z
m204 -155 c79 -51 86 -120 24 -234 -53 -99 -122 -128 -204 -86 -63 32 -87 66
-86 119 2 74 54 173 114 216 34 24 104 17 152 -15z"/>
<path d="M6468 2404 c-5 -5 -75 -26 -218 -65 -36 -10 -79 -23 -140 -40 -19 -6
-48 -14 -65 -18 -16 -4 -30 -12 -29 -19 1 -7 2 -21 3 -31 0 -11 13 -26 28 -33
14 -7 29 -20 33 -28 17 -34 29 -66 34 -90 2 -14 14 -59 26 -100 45 -157 45
-150 26 -184 -13 -25 -15 -38 -7 -58 l10 -27 88 25 c48 14 115 32 148 40 33 9
69 19 80 24 11 4 43 14 70 20 28 7 66 18 86 24 l36 11 -17 55 c-10 30 -20 67
-24 83 -12 53 -76 24 -76 -35 0 -44 -19 -58 -110 -83 -98 -27 -132 -26 -147 6
-7 15 -14 48 -15 74 -3 46 -3 47 37 60 22 7 51 15 65 19 45 11 50 19 40 58
l-10 36 -61 -19 c-99 -31 -119 -25 -133 36 -22 90 -21 90 26 107 95 33 116 38
165 38 47 0 51 -2 63 -31 11 -26 17 -29 39 -24 14 4 29 10 33 13 4 4 -2 42
-14 85 -18 66 -24 77 -43 77 -12 0 -24 -3 -27 -6z"/>
<path d="M4376 2358 c-15 -46 -13 -57 14 -76 l27 -20 7 -199 c9 -270 13 -302
40 -308 12 -2 32 -6 46 -9 23 -5 29 4 93 135 37 77 67 144 67 150 0 5 11 9 24
9 31 0 36 -20 36 -140 0 -151 8 -196 37 -209 57 -26 67 -19 123 97 169 348
172 352 215 352 18 0 25 5 25 19 0 11 2 26 5 33 4 10 -14 18 -67 31 -109 26
-110 26 -120 -6 -8 -22 -6 -32 7 -47 23 -26 16 -69 -27 -156 -24 -51 -39 -70
-55 -72 -30 -4 -33 11 -36 188 l-2 145 -35 6 c-19 3 -42 9 -50 13 -11 4 -22
-10 -44 -57 -59 -130 -101 -212 -111 -220 -5 -4 -19 -6 -30 -5 -18 3 -20 12
-22 97 -3 97 10 141 41 141 12 0 26 28 26 56 0 11 -37 23 -140 44 -30 7 -63
14 -73 17 -9 2 -19 -2 -21 -9z"/>
<path d="M5415 2221 l-100 -6 -3 -37 c-2 -29 1 -38 16 -42 27 -9 30 -33 38
-239 7 -177 7 -178 -14 -184 -18 -4 -22 -13 -22 -45 l0 -39 93 5 c50 3 153 8
227 11 74 4 152 9 173 12 l37 6 0 88 0 89 -40 0 c-36 0 -40 -2 -40 -25 0 -15
-11 -36 -26 -50 -24 -22 -36 -25 -103 -25 -42 0 -85 -3 -96 -5 -41 -11 -45 4
-57 199 l-11 188 26 21 c20 18 24 28 20 55 -3 17 -8 31 -12 30 -3 -1 -51 -4
-106 -7z"/>
</g>
</svg>
